# xmcd
#
# Track frame offsets:
#	150
#	13805
#	24617
#	39192
#	54582
#	70312
#	85790
#	99690
#	118535
#	137957
#	147302
#	164162
#	177727
#	195905
#	209367
#	221127
#	234502
#	248387
#	264742
#	282505
#	301762
#	314455
#	333955
#
# Disc length: 4711 seconds
#
# Revision: 1
# Processed by: cddbd v1.5.1PL0 Copyright (c) Steve Scherf et al.
# Submitted via: CDex 1.50Beta5
#
DISCID=59126517
DTITLE=手塚治虫 - 手塚治虫の世界
DYEAR=2003
DGENRE=Music
TTITLE0=マルス2015年
TTITLE1=少年マルス
TTITLE2=おやすみマルス
TTITLE3=パラダイス　ドラキュラ
TTITLE4=お父さんは吸血鬼
TTITLE5=傷だらけの翼　Nhk連続ラジオ小説「火の鳥 鳳凰編」から
TTITLE6=名も知らぬ星　Nhk連続ラジオ小説「火の鳥 鳳凰編」から
TTITLE7=ザ・マリンエキスプレス
TTITLE8=序曲　マリンエキスプレス
TTITLE9=劇場版アニメ「火の鳥2772」から　Prologue
TTITLE10=劇場版アニメ「火の鳥2772」から　The Power Of Love
TTITLE11=ジャングル大帝｀89から　サバンナを超えて
TTITLE12=ジャングル大帝｀89から　夕映えになれ
TTITLE13=ジャングル大帝｀89から　風色のランナー
TTITLE14=ジャングル大帝｀89から　ぼくらのパラダイス
TTITLE15=テレビアニメ「三つ目がとおる」から　　？のブーメラン
TTITLE16=テレビアニメ「三つ目がとおる」から　ちょっと魔法でばんそうこ
TTITLE17=テレビアニメ「三つ目がとおる」から　写楽くん音頭
TTITLE18=テレビアニメ「三つ目がとおる」から　Friend
TTITLE19=オリジナル　ビデオ・アニメ「マグマ大使」から　愛がある星
TTITLE20=オリジナル　ビデオ・アニメ「マグマ大使」から　マグマ大使主題歌
TTITLE21=劇場版映画「Black JACK」から　Invible Love (English）
TTITLE22=劇場版映画「Black JACK」から　Invible Love (日本語）
EXTD=
EXTT0=
EXTT1=
EXTT2=
EXTT3=
EXTT4=
EXTT5=
EXTT6=
EXTT7=
EXTT8=
EXTT9=
EXTT10=
EXTT11=
EXTT12=
EXTT13=
EXTT14=
EXTT15=
EXTT16=
EXTT17=
EXTT18=
EXTT19=
EXTT20=
EXTT21=
EXTT22=
PLAYORDER=
